<svg xmlns="http://www.w3.org/2000/svg" viewBox="0 0 200 400" fill="none" stroke="#8B9D77" stroke-width="1.2" stroke-linecap="round" stroke-linejoin="round">
  <!-- Main branch stem -->
  <path d="M100 380 C98 340, 95 300, 97 260 C99 220, 94 180, 96 140 C98 100, 95 70, 100 30"/>

  <!-- Left leaves -->
  <path d="M97 320 C80 310, 55 305, 40 295 C55 290, 80 295, 97 310"/>
  <path d="M95 270 C78 255, 50 248, 35 235 C52 232, 78 240, 95 258"/>
  <path d="M96 215 C82 200, 60 190, 48 178 C62 176, 82 185, 96 205"/>
  <path d="M96 165 C85 152, 68 142, 58 132 C70 130, 85 138, 96 155"/>
  <path d="M97 115 C88 105, 76 97, 68 88 C78 87, 88 93, 97 107"/>
  <path d="M98 72 C92 64, 84 58, 78 50 C86 50, 92 55, 98 66"/>

  <!-- Right leaves -->
  <path d="M98 345 C115 338, 140 335, 155 328 C140 322, 115 325, 98 335"/>
  <path d="M99 295 C118 282, 145 276, 162 265 C147 260, 118 268, 99 283"/>
  <path d="M97 242 C112 228, 135 220, 148 208 C135 206, 112 214, 97 232"/>
  <path d="M97 190 C110 178, 128 170, 140 160 C130 158, 110 165, 97 180"/>
  <path d="M98 140 C108 130, 122 124, 132 116 C124 114, 108 120, 98 132"/>
  <path d="M99 92 C106 84, 116 78, 124 72 C118 70, 106 76, 99 85"/>

  <!-- Small leaf veins -->
  <path d="M97 315 C85 308, 70 303, 60 298" opacity="0.4"/>
  <path d="M98 340 C110 334, 128 330, 140 326" opacity="0.4"/>
  <path d="M95 265 C80 252, 62 245, 50 238" opacity="0.4"/>
  <path d="M99 290 C112 278, 130 272, 145 264" opacity="0.4"/>
</svg>
