<svg xmlns="http://www.w3.org/2000/svg" viewBox="0 0 180 350" fill="none" stroke="#8B9D77" stroke-width="1" stroke-linecap="round" stroke-linejoin="round">
  <!-- Rosemary sprig - main stem -->
  <path d="M90 330 C88 290, 92 250, 88 210 C84 170, 90 130, 86 90 C84 60, 88 40, 85 20"/>

  <!-- Left needles -->
  <path d="M89 310 C80 303, 68 300, 58 296"/>
  <path d="M88 290 C78 282, 64 278, 52 273"/>
  <path d="M87 268 C76 260, 62 256, 50 250"/>
  <path d="M87 248 C78 240, 66 236, 56 230"/>
  <path d="M86 226 C78 218, 68 215, 58 210"/>
  <path d="M86 205 C79 198, 70 195, 62 190"/>
  <path d="M87 184 C80 178, 73 175, 66 170"/>
  <path d="M86 164 C80 158, 74 155, 68 150"/>
  <path d="M86 144 C81 139, 76 136, 70 132"/>
  <path d="M86 124 C82 120, 78 117, 73 114"/>
  <path d="M85 104 C82 100, 78 97, 74 94"/>
  <path d="M85 84 C82 80, 79 78, 76 75"/>
  <path d="M85 64 C83 61, 80 59, 78 56"/>
  <path d="M85 44 C83 42, 81 40, 80 38"/>

  <!-- Right needles -->
  <path d="M90 300 C100 293, 112 290, 124 286"/>
  <path d="M89 278 C100 270, 114 266, 126 260"/>
  <path d="M88 258 C98 250, 110 246, 122 240"/>
  <path d="M88 236 C96 228, 106 225, 116 220"/>
  <path d="M87 216 C95 209, 104 206, 112 202"/>
  <path d="M88 195 C94 188, 102 185, 110 180"/>
  <path d="M87 174 C93 168, 100 165, 106 160"/>
  <path d="M87 154 C92 148, 98 145, 104 141"/>
  <path d="M86 134 C91 129, 96 126, 100 122"/>
  <path d="M86 114 C90 110, 94 107, 98 104"/>
  <path d="M86 94 C89 90, 92 88, 96 85"/>
  <path d="M85 74 C88 71, 90 69, 93 66"/>
  <path d="M85 54 C87 52, 89 50, 91 48"/>
  <path d="M85 34 C86 32, 88 31, 89 30"/>

  <!-- Small secondary stem -->
  <path d="M88 240 C78 220, 65 200, 55 175 C52 165, 50 155, 52 145" opacity="0.6"/>
  <path d="M55 200 C48 196, 40 194, 32 190" opacity="0.5"/>
  <path d="M55 180 C48 176, 42 174, 35 170" opacity="0.5"/>
  <path d="M53 160 C48 156, 44 154, 40 152" opacity="0.5"/>
  <path d="M56 195 C62 190, 68 188, 74 184" opacity="0.5"/>
  <path d="M54 175 C59 170, 64 168, 68 164" opacity="0.5"/>
</svg>
